<svg width="379" height="67" viewBox="0 0 379 67" fill="none" xmlns="http://www.w3.org/2000/svg">
<g filter="url(#filter0_d)">
<path d="M21.3516 3.8125L34.5 40.9375L47.5781 3.8125H61.4297V55H50.8477V41.0078L51.9023 16.8555L38.0859 55H30.8438L17.0625 16.8906L18.1172 41.0078V55H7.57031V3.8125H21.3516ZM112.688 30.5664C112.688 35.6055 111.797 40.0234 110.016 43.8203C108.234 47.6172 105.68 50.5469 102.352 52.6094C99.0469 54.6719 95.25 55.7031 90.9609 55.7031C86.7188 55.7031 82.9336 54.6836 79.6055 52.6445C76.2773 50.6055 73.6992 47.6992 71.8711 43.9258C70.043 40.1289 69.1172 35.7695 69.0938 30.8477V28.3164C69.0938 23.2773 69.9961 18.8477 71.8008 15.0273C73.6289 11.1836 76.1953 8.24219 79.5 6.20312C82.8281 4.14062 86.625 3.10938 90.8906 3.10938C95.1562 3.10938 98.9414 4.14062 102.246 6.20312C105.574 8.24219 108.141 11.1836 109.945 15.0273C111.773 18.8477 112.688 23.2656 112.688 28.2812V30.5664ZM102 28.2461C102 22.8789 101.039 18.8008 99.1172 16.0117C97.1953 13.2227 94.4531 11.8281 90.8906 11.8281C87.3516 11.8281 84.6211 13.2109 82.6992 15.9766C80.7773 18.7188 79.8047 22.75 79.7812 28.0703V30.5664C79.7812 35.793 80.7422 39.8477 82.6641 42.7305C84.5859 45.6133 87.3516 47.0547 90.9609 47.0547C94.5 47.0547 97.2188 45.6719 99.1172 42.9062C101.016 40.1172 101.977 36.0625 102 30.7422V28.2461ZM138.492 42.3086L150.094 3.8125H161.836L144.012 55H133.008L115.254 3.8125H126.961L138.492 42.3086ZM177.902 55H167.355V3.8125H177.902V55ZM218.508 32.8164H198.258V46.5273H222.023V55H187.711V3.8125H221.953V12.3555H198.258V24.5547H218.508V32.8164ZM259.008 34.082H238.758V55H228.211V3.8125H261.539V12.3555H238.758V25.5742H259.008V34.082ZM278.203 46.5273H300.598V55H267.656V3.8125H278.203V46.5273ZM317.895 55H307.348V3.8125H317.895V55ZM346.652 21.4609L356.25 3.8125H368.379L353.473 29.1953L368.766 55H356.496L346.652 37.0703L336.809 55H324.539L339.832 29.1953L324.926 3.8125H337.055L346.652 21.4609Z" fill="#3C1F1F"/>
<path d="M21.3516 3.8125L24.1794 2.81096L23.4717 0.8125H21.3516V3.8125ZM34.5 40.9375L31.6721 41.939L34.5076 49.9451L37.3296 41.9343L34.5 40.9375ZM47.5781 3.8125V0.8125H45.4542L44.7486 2.81572L47.5781 3.8125ZM61.4297 3.8125H64.4297V0.8125H61.4297V3.8125ZM61.4297 55V58H64.4297V55H61.4297ZM50.8477 55H47.8477V58H50.8477V55ZM50.8477 41.0078L47.8505 40.8769L47.8477 40.9423V41.0078H50.8477ZM51.9023 16.8555L54.8995 16.9863L49.0817 15.8338L51.9023 16.8555ZM38.0859 55V58H40.19L40.9066 56.0217L38.0859 55ZM30.8438 55L28.0226 56.0202L28.7385 58H30.8438V55ZM17.0625 16.8906L19.8837 15.8704L14.0654 17.0217L17.0625 16.8906ZM18.1172 41.0078H21.1172V40.9422L21.1143 40.8767L18.1172 41.0078ZM18.1172 55V58H21.1172V55H18.1172ZM7.57031 55H4.57031V58H7.57031V55ZM7.57031 3.8125V0.8125H4.57031V3.8125H7.57031ZM18.5237 4.81404L31.6721 41.939L37.3279 39.936L24.1794 2.81096L18.5237 4.81404ZM37.3296 41.9343L50.4077 4.80928L44.7486 2.81572L31.6704 39.9407L37.3296 41.9343ZM47.5781 6.8125H61.4297V0.8125H47.5781V6.8125ZM58.4297 3.8125V55H64.4297V3.8125H58.4297ZM61.4297 52H50.8477V58H61.4297V52ZM53.8477 55V41.0078H47.8477V55H53.8477ZM53.8448 41.1387L54.8995 16.9863L48.9052 16.7246L47.8505 40.8769L53.8448 41.1387ZM49.0817 15.8338L35.2653 53.9783L40.9066 56.0217L54.723 17.8771L49.0817 15.8338ZM38.0859 52H30.8438V58H38.0859V52ZM33.6649 53.9798L19.8837 15.8704L14.2413 17.9108L28.0226 56.0202L33.6649 53.9798ZM14.0654 17.0217L15.1201 41.1389L21.1143 40.8767L20.0596 16.7596L14.0654 17.0217ZM15.1172 41.0078V55H21.1172V41.0078H15.1172ZM18.1172 52H7.57031V58H18.1172V52ZM10.5703 55V3.8125H4.57031V55H10.5703ZM7.57031 6.8125H21.3516V0.8125H7.57031V6.8125ZM102.352 52.6094L100.771 50.0593L100.763 50.0644L102.352 52.6094ZM71.8711 43.9258L69.1681 45.2272L69.1713 45.2338L71.8711 43.9258ZM69.0938 30.8477H66.0938V30.8548L66.0938 30.8619L69.0938 30.8477ZM71.8008 15.0273L69.0916 13.7388L69.0882 13.7459L71.8008 15.0273ZM79.5 6.20312L81.0753 8.75624L81.0803 8.75315L79.5 6.20312ZM102.246 6.20312L100.658 8.74813L100.668 8.7547L100.679 8.76119L102.246 6.20312ZM109.945 15.0273L107.23 16.3023L107.234 16.3123L107.239 16.3223L109.945 15.0273ZM82.6992 15.9766L85.1559 17.6984L85.1628 17.6885L82.6992 15.9766ZM79.7812 28.0703L76.7812 28.0571V28.0703H79.7812ZM99.1172 42.9062L101.591 44.6041L101.597 44.5943L99.1172 42.9062ZM102 30.7422L105 30.7554V30.7422H102ZM109.688 30.5664C109.688 35.2525 108.86 39.2202 107.3 42.5462L112.732 45.0945C114.734 40.8267 115.688 35.9585 115.688 30.5664H109.688ZM107.3 42.5462C105.747 45.8559 103.57 48.3251 100.771 50.0593L103.932 55.1594C107.79 52.7686 110.722 49.3785 112.732 45.0945L107.3 42.5462ZM100.763 50.0644C97.9824 51.7999 94.7471 52.7031 90.9609 52.7031V58.7031C95.7529 58.7031 100.111 57.5438 103.94 55.1544L100.763 50.0644ZM90.9609 52.7031C87.2221 52.7031 83.9884 51.8116 81.1727 50.0865L78.0382 55.2026C81.8787 57.5556 86.2154 58.7031 90.9609 58.7031V52.7031ZM81.1727 50.0865C78.3705 48.3696 76.1683 45.9148 74.5709 42.6178L69.1713 45.2338C71.2302 49.4836 74.1842 52.8413 78.0382 55.2026L81.1727 50.0865ZM74.5741 42.6243C72.9693 39.2912 72.1154 35.3839 72.0937 30.8334L66.0938 30.8619C66.119 36.1551 67.1167 40.9666 69.1681 45.2272L74.5741 42.6243ZM72.0938 30.8477V28.3164H66.0938V30.8477H72.0938ZM72.0938 28.3164C72.0938 23.6361 72.9309 19.6586 74.5133 16.3087L69.0882 13.7459C67.0613 18.0367 66.0938 22.9185 66.0938 28.3164H72.0938ZM74.51 16.3159C76.1146 12.9419 78.3094 10.4628 81.0753 8.75623L77.9247 3.65002C74.0812 6.02154 71.1432 9.42525 69.0916 13.7388L74.51 16.3159ZM81.0803 8.75315C83.8916 7.01092 87.1316 6.10938 90.8906 6.10938V0.109375C86.1184 0.109375 81.7646 1.27033 77.9197 3.6531L81.0803 8.75315ZM90.8906 6.10938C94.6499 6.10938 97.8743 7.01095 100.658 8.74813L103.834 3.65812C100.009 1.2703 95.6626 0.109375 90.8906 0.109375V6.10938ZM100.679 8.76119C103.463 10.467 105.651 12.9406 107.23 16.3023L112.661 13.7523C110.63 9.42658 107.685 6.01736 103.813 3.64506L100.679 8.76119ZM107.239 16.3223C108.841 19.6705 109.688 23.632 109.688 28.2812H115.688C115.688 22.8993 114.705 18.0248 112.651 13.7324L107.239 16.3223ZM109.688 28.2812V30.5664H115.688V28.2812H109.688ZM105 28.2461C105 22.5983 104.002 17.814 101.587 14.3095L96.6469 17.7139C98.0757 19.7875 99 23.1595 99 28.2461H105ZM101.587 14.3095C99.0722 10.6592 95.3792 8.82812 90.8906 8.82812V14.8281C93.527 14.8281 95.3185 15.7861 96.6469 17.7139L101.587 14.3095ZM90.8906 8.82812C86.4282 8.82812 82.7512 10.6446 80.2357 14.2646L85.1628 17.6885C86.491 15.7772 88.2749 14.8281 90.8906 14.8281V8.82812ZM80.2425 14.2548C77.8181 17.7139 76.806 22.4568 76.7813 28.0571L82.7812 28.0835C82.8034 23.0432 83.7365 19.7236 85.1559 17.6984L80.2425 14.2548ZM76.7812 28.0703V30.5664H82.7812V28.0703H76.7812ZM76.7812 30.5664C76.7812 36.1033 77.7899 40.8275 80.1679 44.3946L85.1602 41.0664C83.6945 38.8678 82.7812 35.4827 82.7812 30.5664H76.7812ZM80.1679 44.3946C82.6734 48.1529 86.3987 50.0547 90.9609 50.0547V44.0547C88.3045 44.0547 86.4984 43.0737 85.1602 41.0664L80.1679 44.3946ZM90.9609 50.0547C95.4241 50.0547 99.097 48.2366 101.591 44.6041L96.6438 41.2084C95.3405 43.1072 93.5759 44.0547 90.9609 44.0547V50.0547ZM101.597 44.5943C103.975 41.1016 104.975 36.3559 105 30.7554L99 30.729C98.9778 35.7691 98.0566 39.1328 96.6372 41.2182L101.597 44.5943ZM105 30.7422V28.2461H99V30.7422H105ZM138.492 42.3086L135.618 43.1694L138.483 52.7343L141.365 43.1742L138.492 42.3086ZM150.094 3.8125V0.8125H147.865L147.221 2.94685L150.094 3.8125ZM161.836 3.8125L164.669 4.79904L166.057 0.8125H161.836V3.8125ZM144.012 55V58H146.144L146.845 55.9865L144.012 55ZM133.008 55L130.173 55.9831L130.873 58H133.008V55ZM115.254 3.8125V0.8125H111.038L112.42 4.79557L115.254 3.8125ZM126.961 3.8125L129.835 2.95166L129.194 0.8125H126.961V3.8125ZM141.365 43.1742L152.966 4.67815L147.221 2.94685L135.62 41.4429L141.365 43.1742ZM150.094 6.8125H161.836V0.8125H150.094V6.8125ZM159.003 2.82596L141.179 54.0135L146.845 55.9865L164.669 4.79904L159.003 2.82596ZM144.012 52H133.008V58H144.012V52ZM135.842 54.0169L118.088 2.82943L112.42 4.79557L130.173 55.9831L135.842 54.0169ZM115.254 6.8125H126.961V0.8125H115.254V6.8125ZM124.087 4.67334L135.618 43.1694L141.366 41.4478L129.835 2.95166L124.087 4.67334ZM177.902 55V58H180.902V55H177.902ZM167.355 55H164.355V58H167.355V55ZM167.355 3.8125V0.8125H164.355V3.8125H167.355ZM177.902 3.8125H180.902V0.8125H177.902V3.8125ZM177.902 52H167.355V58H177.902V52ZM170.355 55V3.8125H164.355V55H170.355ZM167.355 6.8125H177.902V0.8125H167.355V6.8125ZM174.902 3.8125V55H180.902V3.8125H174.902ZM218.508 32.8164V35.8164H221.508V32.8164H218.508ZM198.258 32.8164V29.8164H195.258V32.8164H198.258ZM198.258 46.5273H195.258V49.5273H198.258V46.5273ZM222.023 46.5273H225.023V43.5273H222.023V46.5273ZM222.023 55V58H225.023V55H222.023ZM187.711 55H184.711V58H187.711V55ZM187.711 3.8125V0.8125H184.711V3.8125H187.711ZM221.953 3.8125H224.953V0.8125H221.953V3.8125ZM221.953 12.3555V15.3555H224.953V12.3555H221.953ZM198.258 12.3555V9.35547H195.258V12.3555H198.258ZM198.258 24.5547H195.258V27.5547H198.258V24.5547ZM218.508 24.5547H221.508V21.5547H218.508V24.5547ZM218.508 29.8164H198.258V35.8164H218.508V29.8164ZM195.258 32.8164V46.5273H201.258V32.8164H195.258ZM198.258 49.5273H222.023V43.5273H198.258V49.5273ZM219.023 46.5273V55H225.023V46.5273H219.023ZM222.023 52H187.711V58H222.023V52ZM190.711 55V3.8125H184.711V55H190.711ZM187.711 6.8125H221.953V0.8125H187.711V6.8125ZM218.953 3.8125V12.3555H224.953V3.8125H218.953ZM221.953 9.35547H198.258V15.3555H221.953V9.35547ZM195.258 12.3555V24.5547H201.258V12.3555H195.258ZM198.258 27.5547H218.508V21.5547H198.258V27.5547ZM215.508 24.5547V32.8164H221.508V24.5547H215.508ZM259.008 34.082V37.082H262.008V34.082H259.008ZM238.758 34.082V31.082H235.758V34.082H238.758ZM238.758 55V58H241.758V55H238.758ZM228.211 55H225.211V58H228.211V55ZM228.211 3.8125V0.8125H225.211V3.8125H228.211ZM261.539 3.8125H264.539V0.8125H261.539V3.8125ZM261.539 12.3555V15.3555H264.539V12.3555H261.539ZM238.758 12.3555V9.35547H235.758V12.3555H238.758ZM238.758 25.5742H235.758V28.5742H238.758V25.5742ZM259.008 25.5742H262.008V22.5742H259.008V25.5742ZM259.008 31.082H238.758V37.082H259.008V31.082ZM235.758 34.082V55H241.758V34.082H235.758ZM238.758 52H228.211V58H238.758V52ZM231.211 55V3.8125H225.211V55H231.211ZM228.211 6.8125H261.539V0.8125H228.211V6.8125ZM258.539 3.8125V12.3555H264.539V3.8125H258.539ZM261.539 9.35547H238.758V15.3555H261.539V9.35547ZM235.758 12.3555V25.5742H241.758V12.3555H235.758ZM238.758 28.5742H259.008V22.5742H238.758V28.5742ZM256.008 25.5742V34.082H262.008V25.5742H256.008ZM278.203 46.5273H275.203V49.5273H278.203V46.5273ZM300.598 46.5273H303.598V43.5273H300.598V46.5273ZM300.598 55V58H303.598V55H300.598ZM267.656 55H264.656V58H267.656V55ZM267.656 3.8125V0.8125H264.656V3.8125H267.656ZM278.203 3.8125H281.203V0.8125H278.203V3.8125ZM278.203 49.5273H300.598V43.5273H278.203V49.5273ZM297.598 46.5273V55H303.598V46.5273H297.598ZM300.598 52H267.656V58H300.598V52ZM270.656 55V3.8125H264.656V55H270.656ZM267.656 6.8125H278.203V0.8125H267.656V6.8125ZM275.203 3.8125V46.5273H281.203V3.8125H275.203ZM317.895 55V58H320.895V55H317.895ZM307.348 55H304.348V58H307.348V55ZM307.348 3.8125V0.8125H304.348V3.8125H307.348ZM317.895 3.8125H320.895V0.8125H317.895V3.8125ZM317.895 52H307.348V58H317.895V52ZM310.348 55V3.8125H304.348V55H310.348ZM307.348 6.8125H317.895V0.8125H307.348V6.8125ZM314.895 3.8125V55H320.895V3.8125H314.895ZM346.652 21.4609L344.017 22.8942L346.652 27.7404L349.288 22.8942L346.652 21.4609ZM356.25 3.8125V0.8125H354.467L353.615 2.37926L356.25 3.8125ZM368.379 3.8125L370.966 5.33168L373.62 0.8125H368.379V3.8125ZM353.473 29.1953L350.886 27.6761L349.99 29.2023L350.892 30.7248L353.473 29.1953ZM368.766 55V58H374.031L371.346 53.4705L368.766 55ZM356.496 55L353.866 56.4438L354.721 58H356.496V55ZM346.652 37.0703L349.282 35.6265L346.652 30.8367L344.023 35.6265L346.652 37.0703ZM336.809 55V58H338.584L339.438 56.4438L336.809 55ZM324.539 55L321.958 53.4705L319.274 58H324.539V55ZM339.832 29.1953L342.413 30.7248L343.315 29.2023L342.419 27.6761L339.832 29.1953ZM324.926 3.8125V0.8125H319.685L322.339 5.33168L324.926 3.8125ZM337.055 3.8125L339.69 2.37926L338.838 0.8125H337.055V3.8125ZM349.288 22.8942L358.885 5.24574L353.615 2.37926L344.017 20.0277L349.288 22.8942ZM356.25 6.8125H368.379V0.8125H356.25V6.8125ZM365.792 2.29332L350.886 27.6761L356.06 30.7145L370.966 5.33168L365.792 2.29332ZM350.892 30.7248L366.185 56.5295L371.346 53.4705L356.053 27.6658L350.892 30.7248ZM368.766 52H356.496V58H368.766V52ZM359.126 53.5562L349.282 35.6265L344.023 38.5141L353.866 56.4438L359.126 53.5562ZM344.023 35.6265L334.179 53.5562L339.438 56.4438L349.282 38.5141L344.023 35.6265ZM336.809 52H324.539V58H336.809V52ZM327.12 56.5295L342.413 30.7248L337.251 27.6658L321.958 53.4705L327.12 56.5295ZM342.419 27.6761L327.513 2.29332L322.339 5.33168L337.245 30.7145L342.419 27.6761ZM324.926 6.8125H337.055V0.8125H324.926V6.8125ZM334.419 5.24574L344.017 22.8942L349.288 20.0277L339.69 2.37926L334.419 5.24574Z" fill="#FFEDED"/>
</g>
<defs>
<filter id="filter0_d" x="0.570312" y="0.109375" width="377.461" height="66.5938" filterUnits="userSpaceOnUse" color-interpolation-filters="sRGB">
<feFlood flood-opacity="0" result="BackgroundImageFix"/>
<feColorMatrix in="SourceAlpha" type="matrix" values="0 0 0 0 0 0 0 0 0 0 0 0 0 0 0 0 0 0 127 0"/>
<feOffset dy="4"/>
<feGaussianBlur stdDeviation="2"/>
<feColorMatrix type="matrix" values="0 0 0 0 0 0 0 0 0 0 0 0 0 0 0 0 0 0 0.25 0"/>
<feBlend mode="normal" in2="BackgroundImageFix" result="effect1_dropShadow"/>
<feBlend mode="normal" in="SourceGraphic" in2="effect1_dropShadow" result="shape"/>
</filter>
</defs>
</svg>
