<svg width="498" height="85" viewBox="0 0 498 85" fill="none" xmlns="http://www.w3.org/2000/svg">
<g filter="url(#filter0_d)">
<path d="M25.4688 4.75L43 54.25L60.4375 4.75H78.9062V73H64.7969V54.3438L66.2031 22.1406L47.7812 73H38.125L19.75 22.1875L21.1562 54.3438V73H7.09375V4.75H25.4688ZM147.25 40.4219C147.25 47.1406 146.062 53.0312 143.688 58.0938C141.312 63.1562 137.906 67.0625 133.469 69.8125C129.062 72.5625 124 73.9375 118.281 73.9375C112.625 73.9375 107.578 72.5781 103.141 69.8594C98.7031 67.1406 95.2656 63.2656 92.8281 58.2344C90.3906 53.1719 89.1562 47.3594 89.125 40.7969V37.4219C89.125 30.7031 90.3281 24.7969 92.7344 19.7031C95.1719 14.5781 98.5938 10.6562 103 7.9375C107.438 5.1875 112.5 3.8125 118.188 3.8125C123.875 3.8125 128.922 5.1875 133.328 7.9375C137.766 10.6562 141.188 14.5781 143.594 19.7031C146.031 24.7969 147.25 30.6875 147.25 37.375V40.4219ZM133 37.3281C133 30.1719 131.719 24.7344 129.156 21.0156C126.594 17.2969 122.938 15.4375 118.188 15.4375C113.469 15.4375 109.828 17.2812 107.266 20.9688C104.703 24.625 103.406 30 103.375 37.0938V40.4219C103.375 47.3906 104.656 52.7969 107.219 56.6406C109.781 60.4844 113.469 62.4062 118.281 62.4062C123 62.4062 126.625 60.5625 129.156 56.875C131.688 53.1562 132.969 47.75 133 40.6562V37.3281ZM181.656 56.0781L197.125 4.75H212.781L189.016 73H174.344L150.672 4.75H166.281L181.656 56.0781ZM234.203 73H220.141V4.75H234.203V73ZM288.344 43.4219H261.344V61.7031H293.031V73H247.281V4.75H292.938V16.1406H261.344V32.4062H288.344V43.4219ZM342.344 45.1094H315.344V73H301.281V4.75H345.719V16.1406H315.344V33.7656H342.344V45.1094ZM367.938 61.7031H397.797V73H353.875V4.75H367.938V61.7031ZM420.859 73H406.797V4.75H420.859V73ZM459.203 28.2812L472 4.75H488.172L468.297 38.5938L488.688 73H472.328L459.203 49.0938L446.078 73H429.719L450.109 38.5938L430.234 4.75H446.406L459.203 28.2812Z" fill="#3F2626"/>
<path d="M25.4688 4.75L28.2966 3.74846L27.5888 1.75H25.4688V4.75ZM43 54.25L40.1721 55.2515L43.0076 63.2576L45.8296 55.2468L43 54.25ZM60.4375 4.75V1.75H58.3136L57.6079 3.75322L60.4375 4.75ZM78.9062 4.75H81.9062V1.75H78.9062V4.75ZM78.9062 73V76H81.9062V73H78.9062ZM64.7969 73H61.7969V76H64.7969V73ZM64.7969 54.3438L61.7997 54.2129L61.7969 54.2783V54.3438H64.7969ZM66.2031 22.1406L69.2003 22.2715L63.3825 21.1189L66.2031 22.1406ZM47.7812 73V76H49.8853L50.6019 74.0217L47.7812 73ZM38.125 73L35.3038 74.0202L36.0197 76H38.125V73ZM19.75 22.1875L22.5712 21.1673L16.7529 22.3186L19.75 22.1875ZM21.1562 54.3438H24.1562V54.2782L24.1534 54.2127L21.1562 54.3438ZM21.1562 73V76H24.1562V73H21.1562ZM7.09375 73H4.09375V76H7.09375V73ZM7.09375 4.75V1.75H4.09375V4.75H7.09375ZM22.6409 5.75154L40.1721 55.2515L45.8279 53.2485L28.2966 3.74846L22.6409 5.75154ZM45.8296 55.2468L63.2671 5.74678L57.6079 3.75322L40.1704 53.2532L45.8296 55.2468ZM60.4375 7.75H78.9062V1.75H60.4375V7.75ZM75.9062 4.75V73H81.9062V4.75H75.9062ZM78.9062 70H64.7969V76H78.9062V70ZM67.7969 73V54.3438H61.7969V73H67.7969ZM67.794 54.4746L69.2003 22.2715L63.206 22.0097L61.7997 54.2129L67.794 54.4746ZM63.3825 21.1189L44.9606 71.9783L50.6019 74.0217L69.0238 23.1623L63.3825 21.1189ZM47.7812 70H38.125V76H47.7812V70ZM40.9462 71.9798L22.5712 21.1673L16.9288 23.2077L35.3038 74.0202L40.9462 71.9798ZM16.7529 22.3186L18.1591 54.4748L24.1534 54.2127L22.7471 22.0564L16.7529 22.3186ZM18.1562 54.3438V73H24.1562V54.3438H18.1562ZM21.1562 70H7.09375V76H21.1562V70ZM10.0938 73V4.75H4.09375V73H10.0938ZM7.09375 7.75H25.4688V1.75H7.09375V7.75ZM133.469 69.8125L131.888 67.2625L131.88 67.2675L133.469 69.8125ZM92.8281 58.2344L90.1251 59.5358L90.1283 59.5424L92.8281 58.2344ZM89.125 40.7969H86.125V40.804L86.125 40.8112L89.125 40.7969ZM92.7344 19.7031L90.0252 18.4146L90.0218 18.4217L92.7344 19.7031ZM103 7.9375L104.575 10.4906L104.58 10.4875L103 7.9375ZM133.328 7.9375L131.74 10.4825L131.75 10.4891L131.761 10.4956L133.328 7.9375ZM143.594 19.7031L140.878 20.9781L140.883 20.9881L140.888 20.9981L143.594 19.7031ZM107.266 20.9688L109.722 22.6906L109.729 22.6807L107.266 20.9688ZM103.375 37.0938L100.375 37.0805V37.0938H103.375ZM129.156 56.875L131.63 58.5728L131.636 58.5631L129.156 56.875ZM133 40.6562L136 40.6695V40.6562H133ZM144.25 40.4219C144.25 46.7876 143.126 52.228 140.972 56.8196L146.403 59.3679C148.999 53.8345 150.25 47.4936 150.25 40.4219H144.25ZM140.972 56.8196C138.825 61.3949 135.796 64.8408 131.888 67.2625L135.049 72.3625C140.016 69.2842 143.8 64.9176 146.403 59.3679L140.972 56.8196ZM131.88 67.2675C127.998 69.6905 123.497 70.9375 118.281 70.9375V76.9375C124.503 76.9375 130.127 75.4345 135.057 72.3575L131.88 67.2675ZM118.281 70.9375C113.128 70.9375 108.633 69.7061 104.708 67.3013L101.573 72.4174C106.523 75.4501 112.122 76.9375 118.281 76.9375V70.9375ZM104.708 67.3013C100.796 64.9048 97.7347 61.4812 95.528 56.9264L90.1283 59.5424C92.7966 65.05 96.6099 69.3765 101.573 72.4174L104.708 67.3013ZM95.5311 56.9329C93.3169 52.3342 92.1544 46.9738 92.125 40.7826L86.125 40.8112C86.1581 47.745 87.4643 54.0096 90.1251 59.5358L95.5311 56.9329ZM92.125 40.7969V37.4219H86.125V40.7969H92.125ZM92.125 37.4219C92.125 31.0619 93.2629 25.6078 95.4469 20.9845L90.0218 18.4217C87.3933 23.986 86.125 30.3443 86.125 37.4219H92.125ZM95.4436 20.9916C97.6576 16.3365 100.708 12.8769 104.575 10.4906L101.425 5.38439C96.4796 8.4356 92.6861 12.8198 90.0252 18.4146L95.4436 20.9916ZM104.58 10.4875C108.501 8.0578 113.007 6.8125 118.188 6.8125V0.8125C111.993 0.8125 106.374 2.3172 101.42 5.38747L104.58 10.4875ZM118.188 6.8125C123.369 6.8125 127.855 8.05783 131.74 10.4825L134.916 5.39249C129.989 2.31717 124.381 0.8125 118.188 0.8125V6.8125ZM131.761 10.4956C135.654 12.8811 138.698 16.3351 140.878 20.9781L146.309 18.4281C143.677 12.8211 139.877 8.43142 134.895 5.37944L131.761 10.4956ZM140.888 20.9981C143.099 25.6197 144.25 31.0539 144.25 37.375H150.25C150.25 30.3211 148.963 23.974 146.3 18.4082L140.888 20.9981ZM144.25 37.375V40.4219H150.25V37.375H144.25ZM136 37.3281C136 29.8912 134.682 23.7476 131.627 19.3134L126.686 22.7179C128.755 25.7211 130 30.4525 130 37.3281H136ZM131.627 19.3134C128.471 14.7334 123.864 12.4375 118.188 12.4375V18.4375C122.011 18.4375 124.717 19.8603 126.686 22.7179L131.627 19.3134ZM118.188 12.4375C112.545 12.4375 107.958 14.715 104.802 19.2568L109.729 22.6807C111.698 19.8475 114.392 18.4375 118.188 18.4375V12.4375ZM104.809 19.247C101.744 23.6202 100.408 29.7068 100.375 37.0805L106.375 37.107C106.405 30.2932 107.662 25.6298 109.722 22.6905L104.809 19.247ZM100.375 37.0938V40.4219H106.375V37.0938H100.375ZM100.375 40.4219C100.375 47.7009 101.704 53.7767 104.723 58.3047L109.715 54.9765C107.609 51.817 106.375 47.0803 106.375 40.4219H100.375ZM104.723 58.3047C107.869 63.024 112.516 65.4062 118.281 65.4062V59.4062C114.422 59.4062 111.694 57.9448 109.715 54.9765L104.723 58.3047ZM118.281 65.4062C123.924 65.4062 128.503 63.1272 131.63 58.5728L126.683 55.1772C124.747 57.9978 122.076 59.4062 118.281 59.4062V65.4062ZM131.636 58.5631C134.646 54.1406 135.967 48.0434 136 40.6695L130 40.643C129.97 47.4566 128.729 52.1719 126.676 55.1869L131.636 58.5631ZM136 40.6562V37.3281H130V40.6562H136ZM181.656 56.0781L178.782 56.939L181.648 66.5039L184.529 56.9438L181.656 56.0781ZM197.125 4.75V1.75H194.896L194.253 3.88435L197.125 4.75ZM212.781 4.75L215.614 5.73654L217.003 1.75H212.781V4.75ZM189.016 73V76H191.148L191.849 73.9865L189.016 73ZM174.344 73L171.509 73.9831L172.209 76H174.344V73ZM150.672 4.75V1.75H146.456L147.838 5.73307L150.672 4.75ZM166.281 4.75L169.155 3.88916L168.514 1.75H166.281V4.75ZM184.529 56.9438L199.997 5.61565L194.253 3.88435L178.784 55.2125L184.529 56.9438ZM197.125 7.75H212.781V1.75H197.125V7.75ZM209.948 3.76346L186.182 72.0135L191.849 73.9865L215.614 5.73654L209.948 3.76346ZM189.016 70H174.344V76H189.016V70ZM177.178 72.0169L153.506 3.76693L147.838 5.73307L171.509 73.9831L177.178 72.0169ZM150.672 7.75H166.281V1.75H150.672V7.75ZM163.407 5.61084L178.782 56.939L184.53 55.2173L169.155 3.88916L163.407 5.61084ZM234.203 73V76H237.203V73H234.203ZM220.141 73H217.141V76H220.141V73ZM220.141 4.75V1.75H217.141V4.75H220.141ZM234.203 4.75H237.203V1.75H234.203V4.75ZM234.203 70H220.141V76H234.203V70ZM223.141 73V4.75H217.141V73H223.141ZM220.141 7.75H234.203V1.75H220.141V7.75ZM231.203 4.75V73H237.203V4.75H231.203ZM288.344 43.4219V46.4219H291.344V43.4219H288.344ZM261.344 43.4219V40.4219H258.344V43.4219H261.344ZM261.344 61.7031H258.344V64.7031H261.344V61.7031ZM293.031 61.7031H296.031V58.7031H293.031V61.7031ZM293.031 73V76H296.031V73H293.031ZM247.281 73H244.281V76H247.281V73ZM247.281 4.75V1.75H244.281V4.75H247.281ZM292.938 4.75H295.938V1.75H292.938V4.75ZM292.938 16.1406V19.1406H295.938V16.1406H292.938ZM261.344 16.1406V13.1406H258.344V16.1406H261.344ZM261.344 32.4062H258.344V35.4062H261.344V32.4062ZM288.344 32.4062H291.344V29.4062H288.344V32.4062ZM288.344 40.4219H261.344V46.4219H288.344V40.4219ZM258.344 43.4219V61.7031H264.344V43.4219H258.344ZM261.344 64.7031H293.031V58.7031H261.344V64.7031ZM290.031 61.7031V73H296.031V61.7031H290.031ZM293.031 70H247.281V76H293.031V70ZM250.281 73V4.75H244.281V73H250.281ZM247.281 7.75H292.938V1.75H247.281V7.75ZM289.938 4.75V16.1406H295.938V4.75H289.938ZM292.938 13.1406H261.344V19.1406H292.938V13.1406ZM258.344 16.1406V32.4062H264.344V16.1406H258.344ZM261.344 35.4062H288.344V29.4062H261.344V35.4062ZM285.344 32.4062V43.4219H291.344V32.4062H285.344ZM342.344 45.1094V48.1094H345.344V45.1094H342.344ZM315.344 45.1094V42.1094H312.344V45.1094H315.344ZM315.344 73V76H318.344V73H315.344ZM301.281 73H298.281V76H301.281V73ZM301.281 4.75V1.75H298.281V4.75H301.281ZM345.719 4.75H348.719V1.75H345.719V4.75ZM345.719 16.1406V19.1406H348.719V16.1406H345.719ZM315.344 16.1406V13.1406H312.344V16.1406H315.344ZM315.344 33.7656H312.344V36.7656H315.344V33.7656ZM342.344 33.7656H345.344V30.7656H342.344V33.7656ZM342.344 42.1094H315.344V48.1094H342.344V42.1094ZM312.344 45.1094V73H318.344V45.1094H312.344ZM315.344 70H301.281V76H315.344V70ZM304.281 73V4.75H298.281V73H304.281ZM301.281 7.75H345.719V1.75H301.281V7.75ZM342.719 4.75V16.1406H348.719V4.75H342.719ZM345.719 13.1406H315.344V19.1406H345.719V13.1406ZM312.344 16.1406V33.7656H318.344V16.1406H312.344ZM315.344 36.7656H342.344V30.7656H315.344V36.7656ZM339.344 33.7656V45.1094H345.344V33.7656H339.344ZM367.938 61.7031H364.938V64.7031H367.938V61.7031ZM397.797 61.7031H400.797V58.7031H397.797V61.7031ZM397.797 73V76H400.797V73H397.797ZM353.875 73H350.875V76H353.875V73ZM353.875 4.75V1.75H350.875V4.75H353.875ZM367.938 4.75H370.938V1.75H367.938V4.75ZM367.938 64.7031H397.797V58.7031H367.938V64.7031ZM394.797 61.7031V73H400.797V61.7031H394.797ZM397.797 70H353.875V76H397.797V70ZM356.875 73V4.75H350.875V73H356.875ZM353.875 7.75H367.938V1.75H353.875V7.75ZM364.938 4.75V61.7031H370.938V4.75H364.938ZM420.859 73V76H423.859V73H420.859ZM406.797 73H403.797V76H406.797V73ZM406.797 4.75V1.75H403.797V4.75H406.797ZM420.859 4.75H423.859V1.75H420.859V4.75ZM420.859 70H406.797V76H420.859V70ZM409.797 73V4.75H403.797V73H409.797ZM406.797 7.75H420.859V1.75H406.797V7.75ZM417.859 4.75V73H423.859V4.75H417.859ZM459.203 28.2812L456.568 29.7145L459.203 34.5607L461.839 29.7145L459.203 28.2812ZM472 4.75V1.75H470.217L469.365 3.31676L472 4.75ZM488.172 4.75L490.759 6.26918L493.413 1.75H488.172V4.75ZM468.297 38.5938L465.71 37.0746L464.814 38.6007L465.716 40.1233L468.297 38.5938ZM488.688 73V76H493.953L491.268 71.4705L488.688 73ZM472.328 73L469.698 74.4438L470.553 76H472.328V73ZM459.203 49.0938L461.833 47.65L459.203 42.8601L456.573 47.65L459.203 49.0938ZM446.078 73V76H447.853L448.708 74.4438L446.078 73ZM429.719 73L427.138 71.4705L424.454 76H429.719V73ZM450.109 38.5938L452.69 40.1233L453.593 38.6007L452.696 37.0746L450.109 38.5938ZM430.234 4.75V1.75H424.994L427.647 6.26918L430.234 4.75ZM446.406 4.75L449.042 3.31676L448.19 1.75H446.406V4.75ZM461.839 29.7145L474.635 6.18324L469.365 3.31676L456.568 26.848L461.839 29.7145ZM472 7.75H488.172V1.75H472V7.75ZM485.585 3.23082L465.71 37.0746L470.884 40.1129L490.759 6.26918L485.585 3.23082ZM465.716 40.1233L486.107 74.5295L491.268 71.4705L470.878 37.0642L465.716 40.1233ZM488.688 70H472.328V76H488.688V70ZM474.958 71.5562L461.833 47.65L456.573 50.5375L469.698 74.4438L474.958 71.5562ZM456.573 47.65L443.448 71.5562L448.708 74.4438L461.833 50.5375L456.573 47.65ZM446.078 70H429.719V76H446.078V70ZM432.3 74.5295L452.69 40.1233L447.529 37.0642L427.138 71.4705L432.3 74.5295ZM452.696 37.0746L432.821 3.23082L427.647 6.26918L447.522 40.1129L452.696 37.0746ZM430.234 7.75H446.406V1.75H430.234V7.75ZM443.771 6.18324L456.568 29.7145L461.839 26.848L449.042 3.31676L443.771 6.18324Z" fill="#661D1D"/>
</g>
<defs>
<filter id="filter0_d" x="0.09375" y="0.8125" width="497.859" height="84.125" filterUnits="userSpaceOnUse" color-interpolation-filters="sRGB">
<feFlood flood-opacity="0" result="BackgroundImageFix"/>
<feColorMatrix in="SourceAlpha" type="matrix" values="0 0 0 0 0 0 0 0 0 0 0 0 0 0 0 0 0 0 127 0"/>
<feOffset dy="4"/>
<feGaussianBlur stdDeviation="2"/>
<feColorMatrix type="matrix" values="0 0 0 0 0 0 0 0 0 0 0 0 0 0 0 0 0 0 0.25 0"/>
<feBlend mode="normal" in2="BackgroundImageFix" result="effect1_dropShadow"/>
<feBlend mode="normal" in="SourceGraphic" in2="effect1_dropShadow" result="shape"/>
</filter>
</defs>
</svg>
